<svg width="1202" height="1201" viewBox="0 0 1202 1201" fill="none" xmlns="http://www.w3.org/2000/svg">
<rect width="1202" height="1201" fill="white"/>
<rect width="1202" height="1201" fill="#171717"/>
<rect x="60" y="62" width="311" height="311" fill="#641611"/>
<rect x="60" y="447" width="311" height="311" fill="#A7C1CC"/>
<rect x="60" y="834" width="311" height="309" fill="#FA693B"/>
<rect x="445" y="447" width="311" height="311" fill="#D93333"/>
<rect x="445" y="834" width="311" height="309" fill="#1A1936"/>
<rect x="830" y="447" width="311" height="311" fill="#ECECEC"/>
<rect x="830" y="834" width="311" height="309" fill="#C0C0C0"/>
<rect x="445" y="62" width="311" height="311" fill="#71310E"/>
<rect x="830" y="62" width="311" height="311" fill="#420D85"/>
<rect x="138" y="141" width="154" height="154" fill="#FFB016"/>
<rect x="137" y="526" width="154" height="154" fill="#F73636"/>
<rect x="137" y="911" width="154" height="155" fill="#FA693B"/>
<rect x="525" y="141" width="153" height="154" fill="black"/>
<rect x="524" y="526" width="153" height="154" fill="#FFE924"/>
<rect x="445" y="838" width="311" height="73" fill="#6763DA"/>
<rect x="445" y="911" width="311" height="74" fill="#4A47A3"/>
<rect x="445" y="985" width="311" height="81" fill="#262452"/>
<rect x="524" y="911" width="153" height="155" fill="#00FF47"/>
<rect x="910" y="526" width="154" height="154" fill="#FF0000"/>
<rect x="910" y="911" width="154" height="155" fill="#FD76A7"/>
<path d="M830.338 304.161L1077.39 372.528L1077.39 373.149L1044.45 373.149L1011.82 373.149L830.338 373.149L830.338 304.161Z" fill="#F75757"/>
<path d="M830.337 232.066L1141.09 318.767L1141.09 373.149L1077.39 373.149L1059.05 367.555L983.229 346.424L830.338 304.161L830.337 232.066Z" fill="#CD28DB"/>
<path d="M830.337 156.242L1141.09 251.954L1141.09 319.078L830.337 232.066L830.337 156.242Z" fill="#7616A4"/>
<rect x="911" y="141" width="154" height="154" fill="#FCFCFC"/>
<rect x="135" y="1011" width="154" height="18" fill="black"/>
<rect x="135" y="1043" width="154" height="20" fill="black"/>
<rect x="135" y="977" width="154" height="19" fill="black"/>
<rect x="135" y="911" width="154" height="20" fill="black"/>
<rect x="135" y="944" width="154" height="19" fill="black"/>
<rect x="1020.43" y="919.456" width="4.88329" height="4.88329" fill="#6B6B6B"/>
<rect x="1015.55" y="924.339" width="4.88329" height="4.88329" fill="#6B6B6B"/>
<rect x="1015.55" y="929.223" width="4.88329" height="4.88329" fill="#6B6B6B"/>
<rect x="1020.43" y="934.106" width="4.88329" height="4.88329" fill="#6B6B6B"/>
<rect x="1015.55" y="938.989" width="4.88329" height="4.88329" fill="#6B6B6B"/>
<rect x="1015.55" y="943.873" width="4.88329" height="4.88329" fill="#6B6B6B"/>
<rect x="1020.43" y="948.756" width="4.88329" height="4.88329" fill="#6B6B6B"/>
<rect x="1025.31" y="948.756" width="4.88329" height="4.88329" fill="#6B6B6B"/>
<rect x="1030.2" y="943.873" width="4.88329" height="4.88329" fill="#6B6B6B"/>
<rect x="1030.2" y="938.989" width="4.88329" height="4.88329" fill="#6B6B6B"/>
<rect x="1025.31" y="934.106" width="4.88329" height="4.88329" fill="#6B6B6B"/>
<rect x="1025.31" y="919.456" width="4.88329" height="4.88329" fill="#6B6B6B"/>
<rect x="1030.2" y="924.339" width="4.88329" height="4.88329" fill="#6B6B6B"/>
<rect x="1036.55" y="924.339" width="4.88329" height="4.88329" fill="#6B6B6B"/>
<rect x="1036.55" y="929.223" width="4.88329" height="4.88329" fill="#6B6B6B"/>
<rect x="1036.55" y="934.106" width="4.88329" height="4.88329" fill="#6B6B6B"/>
<rect x="1036.55" y="938.989" width="4.88329" height="4.88329" fill="#6B6B6B"/>
<rect x="1036.55" y="943.873" width="4.88329" height="4.88329" fill="#6B6B6B"/>
<rect x="1041.43" y="948.756" width="4.88329" height="4.88329" fill="#6B6B6B"/>
<rect x="1046.31" y="948.756" width="4.88329" height="4.88329" fill="#6B6B6B"/>
<rect x="1051.2" y="943.873" width="4.88329" height="4.88329" fill="#6B6B6B"/>
<rect x="1051.2" y="938.989" width="4.88329" height="4.88329" fill="#6B6B6B"/>
<rect x="1051.2" y="934.106" width="4.88329" height="4.88329" fill="#6B6B6B"/>
<rect x="1041.43" y="919.456" width="4.88329" height="4.88329" fill="#6B6B6B"/>
<rect x="1046.31" y="919.456" width="4.88329" height="4.88329" fill="#6B6B6B"/>
<rect x="1051.2" y="924.339" width="4.88329" height="4.88329" fill="#6B6B6B"/>
<rect x="1051.2" y="929.223" width="4.88329" height="4.88329" fill="#6B6B6B"/>
<rect x="1030.2" y="929.223" width="4.88329" height="4.88329" fill="#6B6B6B"/>
<rect x="1021.19" y="917.592" width="4.88329" height="4.88329" fill="#8B8989"/>
<rect x="1016.3" y="922.475" width="4.88329" height="4.88329" fill="#8B8989"/>
<rect x="1016.3" y="927.358" width="4.88329" height="4.88329" fill="#8B8989"/>
<rect x="1021.19" y="932.241" width="4.88329" height="4.88329" fill="#8B8989"/>
<rect x="1016.3" y="937.125" width="4.88329" height="4.88329" fill="#8B8989"/>
<rect x="1016.3" y="942.008" width="4.88329" height="4.88329" fill="#8B8989"/>
<rect x="1021.19" y="946.891" width="4.88329" height="4.88329" fill="#8B8989"/>
<rect x="1026.07" y="946.891" width="4.88329" height="4.88329" fill="#8B8989"/>
<rect x="1030.95" y="942.008" width="4.88329" height="4.88329" fill="#8B8989"/>
<rect x="1030.95" y="937.125" width="4.88329" height="4.88329" fill="#8B8989"/>
<rect x="1026.07" y="932.241" width="4.88329" height="4.88329" fill="#8B8989"/>
<rect x="1026.07" y="917.592" width="4.88329" height="4.88329" fill="#8B8989"/>
<rect x="1030.95" y="922.475" width="4.88329" height="4.88329" fill="#8B8989"/>
<rect x="1037.3" y="922.475" width="4.88329" height="4.88329" fill="#8B8989"/>
<rect x="1037.3" y="927.358" width="4.88329" height="4.88329" fill="#8B8989"/>
<rect x="1037.3" y="932.241" width="4.88329" height="4.88329" fill="#8B8989"/>
<rect x="1037.3" y="937.125" width="4.88329" height="4.88329" fill="#8B8989"/>
<rect x="1037.3" y="942.008" width="4.88329" height="4.88329" fill="#8B8989"/>
<rect x="1042.18" y="946.891" width="4.88329" height="4.88329" fill="#8B8989"/>
<rect x="1047.07" y="946.891" width="4.88329" height="4.88329" fill="#8B8989"/>
<rect x="1051.95" y="942.008" width="4.88329" height="4.88329" fill="#8B8989"/>
<rect x="1051.95" y="937.125" width="4.88329" height="4.88329" fill="#8B8989"/>
<rect x="1051.95" y="932.241" width="4.88329" height="4.88329" fill="#8B8989"/>
<rect x="1042.18" y="917.592" width="4.88329" height="4.88329" fill="#8B8989"/>
<rect x="1047.07" y="917.592" width="4.88329" height="4.88329" fill="#8B8989"/>
<rect x="1051.95" y="922.475" width="4.88329" height="4.88329" fill="#8B8989"/>
<rect x="1051.95" y="927.358" width="4.88329" height="4.88329" fill="#8B8989"/>
<rect x="1030.95" y="927.358" width="4.88329" height="4.88329" fill="#8B8989"/>
<rect x="172" y="174" width="87" height="87" fill="#641611"/>
<rect x="528" y="531" width="70" height="70" fill="#8B4620"/>
<rect x="603" y="531" width="70" height="70" fill="#20A64E"/>
<rect x="603" y="606" width="70" height="69" fill="#F5A07C"/>
<rect x="528" y="606" width="70" height="69" fill="#1D66A9"/>
</svg>
