<svg width="1446" height="1444" viewBox="0 0 1446 1444" fill="none" xmlns="http://www.w3.org/2000/svg">
<rect width="1446" height="1444" fill="white"/>
<rect width="1446" height="1444" fill="#171717"/>
<rect x="205" y="205" width="1036" height="1036" fill="#C0C0C0"/>
<rect x="470" y="466" width="514" height="514" fill="#FD76A7"/>
<rect x="841.278" y="495" width="16.2779" height="16.2779" fill="#6B6B6B"/>
<rect x="825" y="511.278" width="16.2779" height="16.2779" fill="#6B6B6B"/>
<rect x="825" y="527.556" width="16.2779" height="16.2779" fill="#6B6B6B"/>
<rect x="841.278" y="543.833" width="16.2779" height="16.2779" fill="#6B6B6B"/>
<rect x="825" y="560.112" width="16.2779" height="16.2779" fill="#6B6B6B"/>
<rect x="825" y="576.39" width="16.2779" height="16.2779" fill="#6B6B6B"/>
<rect x="841.278" y="592.667" width="16.2779" height="16.2779" fill="#6B6B6B"/>
<rect x="857.556" y="592.667" width="16.2779" height="16.2779" fill="#6B6B6B"/>
<rect x="873.833" y="576.39" width="16.2779" height="16.2779" fill="#6B6B6B"/>
<rect x="873.833" y="560.112" width="16.2779" height="16.2779" fill="#6B6B6B"/>
<rect x="857.556" y="543.833" width="16.2779" height="16.2779" fill="#6B6B6B"/>
<rect x="857.556" y="495" width="16.2779" height="16.2779" fill="#6B6B6B"/>
<rect x="873.833" y="511.278" width="16.2779" height="16.2779" fill="#6B6B6B"/>
<rect x="894.995" y="511.278" width="16.2779" height="16.2779" fill="#6B6B6B"/>
<rect x="894.995" y="527.556" width="16.2779" height="16.2779" fill="#6B6B6B"/>
<rect x="894.995" y="543.833" width="16.2779" height="16.2779" fill="#6B6B6B"/>
<rect x="894.995" y="560.112" width="16.2779" height="16.2779" fill="#6B6B6B"/>
<rect x="894.995" y="576.39" width="16.2779" height="16.2779" fill="#6B6B6B"/>
<rect x="911.272" y="592.667" width="16.2779" height="16.2779" fill="#6B6B6B"/>
<rect x="927.551" y="592.667" width="16.2779" height="16.2779" fill="#6B6B6B"/>
<rect x="943.83" y="576.39" width="16.2779" height="16.2779" fill="#6B6B6B"/>
<rect x="943.83" y="560.112" width="16.2779" height="16.2779" fill="#6B6B6B"/>
<rect x="943.83" y="543.833" width="16.2779" height="16.2779" fill="#6B6B6B"/>
<rect x="911.272" y="495" width="16.2779" height="16.2779" fill="#6B6B6B"/>
<rect x="927.551" y="495" width="16.2779" height="16.2779" fill="#6B6B6B"/>
<rect x="943.83" y="511.278" width="16.2779" height="16.2779" fill="#6B6B6B"/>
<rect x="943.83" y="527.556" width="16.2779" height="16.2779" fill="#6B6B6B"/>
<rect x="873.833" y="527.556" width="16.2779" height="16.2779" fill="#6B6B6B"/>
<rect x="841.273" y="486.858" width="16.2779" height="16.2779" fill="#8B8989"/>
<rect x="824.995" y="503.136" width="16.2779" height="16.2779" fill="#8B8989"/>
<rect x="824.995" y="519.414" width="16.2779" height="16.2779" fill="#8B8989"/>
<rect x="841.273" y="535.691" width="16.2779" height="16.2779" fill="#8B8989"/>
<rect x="824.995" y="551.97" width="16.2779" height="16.2779" fill="#8B8989"/>
<rect x="824.995" y="568.248" width="16.2779" height="16.2779" fill="#8B8989"/>
<rect x="841.273" y="584.525" width="16.2779" height="16.2779" fill="#8B8989"/>
<rect x="857.551" y="584.525" width="16.2779" height="16.2779" fill="#8B8989"/>
<rect x="873.829" y="568.248" width="16.2779" height="16.2779" fill="#8B8989"/>
<rect x="873.829" y="551.97" width="16.2779" height="16.2779" fill="#8B8989"/>
<rect x="857.551" y="535.691" width="16.2779" height="16.2779" fill="#8B8989"/>
<rect x="857.551" y="486.858" width="16.2779" height="16.2779" fill="#8B8989"/>
<rect x="873.829" y="503.136" width="16.2779" height="16.2779" fill="#8B8989"/>
<rect x="894.99" y="503.136" width="16.2779" height="16.2779" fill="#8B8989"/>
<rect x="894.99" y="519.414" width="16.2779" height="16.2779" fill="#8B8989"/>
<rect x="894.99" y="535.691" width="16.2779" height="16.2779" fill="#8B8989"/>
<rect x="894.99" y="551.97" width="16.2779" height="16.2779" fill="#8B8989"/>
<rect x="894.99" y="568.248" width="16.2779" height="16.2779" fill="#8B8989"/>
<rect x="911.268" y="584.525" width="16.2779" height="16.2779" fill="#8B8989"/>
<rect x="927.546" y="584.525" width="16.2779" height="16.2779" fill="#8B8989"/>
<rect x="943.825" y="568.248" width="16.2779" height="16.2779" fill="#8B8989"/>
<rect x="943.825" y="551.97" width="16.2779" height="16.2779" fill="#8B8989"/>
<rect x="943.825" y="535.691" width="16.2779" height="16.2779" fill="#8B8989"/>
<rect x="911.268" y="486.858" width="16.2779" height="16.2779" fill="#8B8989"/>
<rect x="927.546" y="486.858" width="16.2779" height="16.2779" fill="#8B8989"/>
<rect x="943.825" y="503.136" width="16.2779" height="16.2779" fill="#8B8989"/>
<rect x="943.825" y="519.414" width="16.2779" height="16.2779" fill="#8B8989"/>
<rect x="873.829" y="519.414" width="16.2779" height="16.2779" fill="#8B8989"/>
</svg>
